<svg width="908" height="198" viewBox="0 0 908 198" fill="none" xmlns="http://www.w3.org/2000/svg">
<rect width="908" height="198" rx="24" fill="#24283B"/>
<rect width="908" height="198" rx="24" stroke="black"/>
<path d="M228.977 101.068V116H220.642V89.8182H228.568V94.625H228.858C229.438 93.0227 230.426 91.767 231.824 90.858C233.222 89.9375 234.886 89.4773 236.818 89.4773C238.659 89.4773 240.256 89.892 241.608 90.7216C242.972 91.5398 244.028 92.6875 244.778 94.1648C245.54 95.6307 245.915 97.3466 245.903 99.3125V116H237.568V100.949C237.58 99.4943 237.21 98.358 236.46 97.5398C235.722 96.7216 234.693 96.3125 233.375 96.3125C232.5 96.3125 231.727 96.5057 231.057 96.892C230.398 97.267 229.886 97.8068 229.523 98.5114C229.17 99.2159 228.989 100.068 228.977 101.068ZM263.303 116.494C260.564 116.494 258.2 115.955 256.212 114.875C254.234 113.784 252.712 112.233 251.643 110.222C250.587 108.199 250.058 105.795 250.058 103.011C250.058 100.307 250.592 97.9432 251.661 95.9205C252.729 93.8864 254.234 92.3068 256.178 91.1818C258.121 90.0455 260.411 89.4773 263.047 89.4773C264.911 89.4773 266.615 89.767 268.161 90.3466C269.706 90.9261 271.041 91.7841 272.166 92.9205C273.291 94.0568 274.166 95.4602 274.791 97.1307C275.416 98.7898 275.729 100.693 275.729 102.841V104.92H252.973V100.08H267.973C267.962 99.1932 267.751 98.4034 267.342 97.7102C266.933 97.017 266.371 96.4773 265.655 96.0909C264.95 95.6932 264.138 95.4943 263.217 95.4943C262.286 95.4943 261.45 95.7045 260.712 96.125C259.973 96.5341 259.388 97.0966 258.956 97.8125C258.524 98.517 258.297 99.3182 258.274 100.216V105.142C258.274 106.21 258.484 107.148 258.905 107.955C259.325 108.75 259.922 109.369 260.695 109.812C261.467 110.256 262.388 110.477 263.456 110.477C264.195 110.477 264.865 110.375 265.467 110.17C266.07 109.966 266.587 109.665 267.018 109.267C267.45 108.869 267.774 108.381 267.99 107.801L275.643 108.023C275.325 109.739 274.626 111.233 273.547 112.506C272.479 113.767 271.075 114.75 269.337 115.455C267.598 116.148 265.587 116.494 263.303 116.494ZM286.702 89.8182L291.014 98.4432L295.48 89.8182H303.884L296.571 102.909L304.156 116H295.821L291.014 107.307L286.327 116H277.872L285.474 102.909L278.247 89.8182H286.702ZM322.467 89.8182V95.9545H305.95V89.8182H322.467ZM309.411 83.5455H317.746V107.767C317.746 108.278 317.825 108.693 317.984 109.011C318.155 109.318 318.399 109.54 318.717 109.676C319.036 109.801 319.416 109.864 319.859 109.864C320.178 109.864 320.513 109.835 320.865 109.778C321.229 109.71 321.501 109.653 321.683 109.608L322.945 115.625C322.547 115.739 321.984 115.881 321.257 116.051C320.541 116.222 319.683 116.33 318.683 116.375C316.729 116.466 315.053 116.239 313.655 115.693C312.268 115.136 311.206 114.273 310.467 113.102C309.74 111.932 309.388 110.46 309.411 108.688V83.5455ZM342.773 98.6648V105.091H326.614V98.6648H342.773ZM356.038 116.443C354.368 116.443 352.885 116.165 351.589 115.608C350.305 115.04 349.288 114.187 348.538 113.051C347.8 111.903 347.43 110.466 347.43 108.739C347.43 107.284 347.686 106.057 348.197 105.057C348.709 104.057 349.413 103.244 350.311 102.619C351.209 101.994 352.243 101.523 353.413 101.205C354.584 100.875 355.834 100.653 357.163 100.54C358.652 100.403 359.851 100.261 360.76 100.114C361.669 99.9545 362.328 99.733 362.737 99.4489C363.158 99.1534 363.368 98.7386 363.368 98.2045V98.1193C363.368 97.2443 363.067 96.5682 362.464 96.0909C361.862 95.6136 361.05 95.375 360.027 95.375C358.925 95.375 358.038 95.6136 357.368 96.0909C356.697 96.5682 356.271 97.2273 356.089 98.0682L348.402 97.7955C348.629 96.2045 349.214 94.7841 350.158 93.5341C351.112 92.2727 352.419 91.2841 354.078 90.5682C355.749 89.8409 357.754 89.4773 360.095 89.4773C361.766 89.4773 363.305 89.6761 364.714 90.0739C366.124 90.4602 367.351 91.0284 368.396 91.7784C369.442 92.517 370.249 93.4261 370.817 94.5057C371.396 95.5852 371.686 96.8182 371.686 98.2045V116H363.845V112.352H363.641C363.175 113.239 362.578 113.989 361.851 114.602C361.135 115.216 360.288 115.676 359.311 115.983C358.345 116.29 357.254 116.443 356.038 116.443ZM358.612 110.989C359.51 110.989 360.317 110.807 361.033 110.443C361.76 110.08 362.339 109.58 362.771 108.943C363.203 108.295 363.419 107.545 363.419 106.693V104.205C363.18 104.33 362.891 104.443 362.55 104.545C362.22 104.648 361.857 104.744 361.459 104.835C361.061 104.926 360.652 105.006 360.232 105.074C359.811 105.142 359.408 105.205 359.021 105.261C358.237 105.386 357.567 105.58 357.01 105.841C356.464 106.102 356.044 106.443 355.749 106.864C355.464 107.273 355.322 107.761 355.322 108.33C355.322 109.193 355.629 109.852 356.243 110.307C356.868 110.761 357.658 110.989 358.612 110.989ZM393.675 104.699V89.8182H401.993V116H394.05V111.125H393.777C393.197 112.727 392.209 114 390.811 114.943C389.425 115.875 387.749 116.341 385.783 116.341C383.999 116.341 382.43 115.932 381.078 115.114C379.726 114.295 378.675 113.153 377.925 111.688C377.175 110.21 376.794 108.483 376.783 106.506V89.8182H385.118V104.869C385.129 106.29 385.504 107.409 386.243 108.227C386.982 109.045 387.987 109.455 389.26 109.455C390.089 109.455 390.834 109.273 391.493 108.909C392.163 108.534 392.692 107.994 393.078 107.29C393.476 106.574 393.675 105.71 393.675 104.699ZM422.077 89.8182V95.9545H405.56V89.8182H422.077ZM409.02 83.5455H417.355V107.767C417.355 108.278 417.435 108.693 417.594 109.011C417.764 109.318 418.009 109.54 418.327 109.676C418.645 109.801 419.026 109.864 419.469 109.864C419.787 109.864 420.122 109.835 420.474 109.778C420.838 109.71 421.111 109.653 421.293 109.608L422.554 115.625C422.156 115.739 421.594 115.881 420.866 116.051C420.151 116.222 419.293 116.33 418.293 116.375C416.338 116.466 414.662 116.239 413.264 115.693C411.878 115.136 410.815 114.273 410.077 113.102C409.349 111.932 408.997 110.46 409.02 108.688V83.5455ZM435.227 101.068V116H426.892V81.0909H434.955V94.625H435.244C435.835 93.0114 436.801 91.75 438.142 90.8409C439.494 89.9318 441.148 89.4773 443.102 89.4773C444.943 89.4773 446.545 89.8864 447.909 90.7045C449.273 91.5114 450.33 92.6534 451.08 94.1307C451.841 95.608 452.216 97.3352 452.205 99.3125V116H443.869V100.949C443.881 99.4943 443.517 98.358 442.778 97.5398C442.04 96.7216 441 96.3125 439.659 96.3125C438.784 96.3125 438.011 96.5057 437.341 96.892C436.682 97.267 436.165 97.8068 435.79 98.5114C435.426 99.2159 435.239 100.068 435.227 101.068ZM474.163 98.6648V105.091H458.004V98.6648H474.163ZM494.827 89.8182V95.9545H478.31V89.8182H494.827ZM481.77 83.5455H490.105V107.767C490.105 108.278 490.185 108.693 490.344 109.011C490.514 109.318 490.759 109.54 491.077 109.676C491.395 109.801 491.776 109.864 492.219 109.864C492.537 109.864 492.872 109.835 493.224 109.778C493.588 109.71 493.861 109.653 494.043 109.608L495.304 115.625C494.906 115.739 494.344 115.881 493.616 116.051C492.901 116.222 492.043 116.33 491.043 116.375C489.088 116.466 487.412 116.239 486.014 115.693C484.628 115.136 483.565 114.273 482.827 113.102C482.099 111.932 481.747 110.46 481.77 108.688V83.5455ZM511.037 116.494C508.298 116.494 505.935 115.955 503.946 114.875C501.969 113.784 500.446 112.233 499.378 110.222C498.321 108.199 497.793 105.795 497.793 103.011C497.793 100.307 498.327 97.9432 499.395 95.9205C500.463 93.8864 501.969 92.3068 503.912 91.1818C505.855 90.0455 508.145 89.4773 510.781 89.4773C512.645 89.4773 514.349 89.767 515.895 90.3466C517.44 90.9261 518.776 91.7841 519.901 92.9205C521.026 94.0568 521.901 95.4602 522.526 97.1307C523.151 98.7898 523.463 100.693 523.463 102.841V104.92H500.707V100.08H515.707C515.696 99.1932 515.486 98.4034 515.077 97.7102C514.668 97.017 514.105 96.4773 513.389 96.0909C512.685 95.6932 511.872 95.4943 510.952 95.4943C510.02 95.4943 509.185 95.7045 508.446 96.125C507.707 96.5341 507.122 97.0966 506.69 97.8125C506.259 98.517 506.031 99.3182 506.009 100.216V105.142C506.009 106.21 506.219 107.148 506.639 107.955C507.06 108.75 507.656 109.369 508.429 109.812C509.202 110.256 510.122 110.477 511.19 110.477C511.929 110.477 512.599 110.375 513.202 110.17C513.804 109.966 514.321 109.665 514.753 109.267C515.185 108.869 515.509 108.381 515.724 107.801L523.378 108.023C523.06 109.739 522.361 111.233 521.281 112.506C520.213 113.767 518.81 114.75 517.071 115.455C515.332 116.148 513.321 116.494 511.037 116.494ZM527.72 116V89.8182H535.646V94.625H535.936C536.482 93.0341 537.402 91.7784 538.697 90.858C539.993 89.9375 541.538 89.4773 543.334 89.4773C545.152 89.4773 546.709 89.9432 548.004 90.875C549.3 91.8068 550.124 93.0568 550.476 94.625H550.749C551.237 93.0682 552.192 91.8239 553.612 90.892C555.033 89.9489 556.709 89.4773 558.641 89.4773C561.118 89.4773 563.129 90.2727 564.675 91.8636C566.22 93.4432 566.993 95.6136 566.993 98.375V116H558.658V100.284C558.658 98.9773 558.322 97.983 557.652 97.3011C556.982 96.608 556.112 96.2614 555.044 96.2614C553.896 96.2614 552.993 96.6364 552.334 97.3864C551.686 98.125 551.362 99.1193 551.362 100.369V116H543.351V100.199C543.351 98.983 543.021 98.0227 542.362 97.3182C541.703 96.6136 540.834 96.2614 539.754 96.2614C539.027 96.2614 538.385 96.4375 537.828 96.7898C537.271 97.1307 536.834 97.6193 536.516 98.2557C536.209 98.892 536.055 99.642 536.055 100.506V116H527.72ZM572.158 125.818V89.8182H580.408V94.3011H580.663C581.004 93.5057 581.487 92.7386 582.112 92C582.749 91.2614 583.555 90.6591 584.533 90.1932C585.521 89.7159 586.703 89.4773 588.078 89.4773C589.896 89.4773 591.595 89.9545 593.175 90.9091C594.766 91.8636 596.05 93.3352 597.027 95.3239C598.004 97.3125 598.493 99.8466 598.493 102.926C598.493 105.892 598.021 108.375 597.078 110.375C596.146 112.375 594.885 113.875 593.294 114.875C591.714 115.875 589.959 116.375 588.027 116.375C586.709 116.375 585.567 116.159 584.601 115.727C583.635 115.295 582.822 114.727 582.163 114.023C581.516 113.318 581.016 112.562 580.663 111.756H580.493V125.818H572.158ZM580.322 102.909C580.322 104.318 580.51 105.545 580.885 106.591C581.271 107.636 581.822 108.449 582.538 109.028C583.266 109.597 584.135 109.881 585.146 109.881C586.169 109.881 587.038 109.597 587.754 109.028C588.47 108.449 589.01 107.636 589.374 106.591C589.749 105.545 589.936 104.318 589.936 102.909C589.936 101.5 589.749 100.278 589.374 99.2443C589.01 98.2102 588.47 97.4091 587.754 96.8409C587.05 96.2727 586.18 95.9886 585.146 95.9886C584.124 95.9886 583.254 96.267 582.538 96.8239C581.822 97.3807 581.271 98.1761 580.885 99.2102C580.51 100.244 580.322 101.477 580.322 102.909ZM611.196 81.0909V116H602.861V81.0909H611.196ZM623.882 116.443C622.212 116.443 620.729 116.165 619.433 115.608C618.149 115.04 617.132 114.187 616.382 113.051C615.643 111.903 615.274 110.466 615.274 108.739C615.274 107.284 615.53 106.057 616.041 105.057C616.553 104.057 617.257 103.244 618.155 102.619C619.053 101.994 620.087 101.523 621.257 101.205C622.428 100.875 623.678 100.653 625.007 100.54C626.496 100.403 627.695 100.261 628.604 100.114C629.513 99.9545 630.172 99.733 630.581 99.4489C631.001 99.1534 631.212 98.7386 631.212 98.2045V98.1193C631.212 97.2443 630.911 96.5682 630.308 96.0909C629.706 95.6136 628.893 95.375 627.871 95.375C626.768 95.375 625.882 95.6136 625.212 96.0909C624.541 96.5682 624.115 97.2273 623.933 98.0682L616.246 97.7955C616.473 96.2045 617.058 94.7841 618.001 93.5341C618.956 92.2727 620.263 91.2841 621.922 90.5682C623.592 89.8409 625.598 89.4773 627.939 89.4773C629.609 89.4773 631.149 89.6761 632.558 90.0739C633.967 90.4602 635.195 91.0284 636.24 91.7784C637.286 92.517 638.092 93.4261 638.661 94.5057C639.24 95.5852 639.53 96.8182 639.53 98.2045V116H631.689V112.352H631.484C631.018 113.239 630.422 113.989 629.695 114.602C628.979 115.216 628.132 115.676 627.155 115.983C626.189 116.29 625.098 116.443 623.882 116.443ZM626.456 110.989C627.354 110.989 628.161 110.807 628.876 110.443C629.604 110.08 630.183 109.58 630.615 108.943C631.047 108.295 631.263 107.545 631.263 106.693V104.205C631.024 104.33 630.734 104.443 630.393 104.545C630.064 104.648 629.7 104.744 629.303 104.835C628.905 104.926 628.496 105.006 628.075 105.074C627.655 105.142 627.251 105.205 626.865 105.261C626.081 105.386 625.411 105.58 624.854 105.841C624.308 106.102 623.888 106.443 623.592 106.864C623.308 107.273 623.166 107.761 623.166 108.33C623.166 109.193 623.473 109.852 624.087 110.307C624.712 110.761 625.501 110.989 626.456 110.989ZM659.405 89.8182V95.9545H642.888V89.8182H659.405ZM646.348 83.5455H654.683V107.767C654.683 108.278 654.763 108.693 654.922 109.011C655.092 109.318 655.337 109.54 655.655 109.676C655.973 109.801 656.354 109.864 656.797 109.864C657.115 109.864 657.45 109.835 657.803 109.778C658.166 109.71 658.439 109.653 658.621 109.608L659.882 115.625C659.484 115.739 658.922 115.881 658.195 116.051C657.479 116.222 656.621 116.33 655.621 116.375C653.666 116.466 651.99 116.239 650.592 115.693C649.206 115.136 648.143 114.273 647.405 113.102C646.678 111.932 646.325 110.46 646.348 108.688V83.5455ZM675.615 116.494C672.876 116.494 670.513 115.955 668.524 114.875C666.547 113.784 665.024 112.233 663.956 110.222C662.899 108.199 662.371 105.795 662.371 103.011C662.371 100.307 662.905 97.9432 663.973 95.9205C665.041 93.8864 666.547 92.3068 668.49 91.1818C670.433 90.0455 672.723 89.4773 675.359 89.4773C677.223 89.4773 678.928 89.767 680.473 90.3466C682.018 90.9261 683.354 91.7841 684.479 92.9205C685.604 94.0568 686.479 95.4602 687.104 97.1307C687.729 98.7898 688.041 100.693 688.041 102.841V104.92H665.286V100.08H680.286C680.274 99.1932 680.064 98.4034 679.655 97.7102C679.246 97.017 678.683 96.4773 677.967 96.0909C677.263 95.6932 676.45 95.4943 675.53 95.4943C674.598 95.4943 673.763 95.7045 673.024 96.125C672.286 96.5341 671.7 97.0966 671.268 97.8125C670.837 98.517 670.609 99.3182 670.587 100.216V105.142C670.587 106.21 670.797 107.148 671.217 107.955C671.638 108.75 672.234 109.369 673.007 109.812C673.78 110.256 674.7 110.477 675.768 110.477C676.507 110.477 677.178 110.375 677.78 110.17C678.382 109.966 678.899 109.665 679.331 109.267C679.763 108.869 680.087 108.381 680.303 107.801L687.956 108.023C687.638 109.739 686.939 111.233 685.859 112.506C684.791 113.767 683.388 114.75 681.649 115.455C679.911 116.148 677.899 116.494 675.615 116.494Z" fill="#C9CBD2"/>
</svg>
