<svg width="950" height="198" viewBox="0 0 950 198" fill="none" xmlns="http://www.w3.org/2000/svg">
<rect width="950" height="198" rx="24" fill="#24283B"/>
<rect width="950" height="198" rx="24" stroke="black"/>
<path d="M228.977 101.068V116H220.642V89.8182H228.568V94.625H228.858C229.438 93.0227 230.426 91.767 231.824 90.858C233.222 89.9375 234.886 89.4773 236.818 89.4773C238.659 89.4773 240.256 89.892 241.608 90.7216C242.972 91.5398 244.028 92.6875 244.778 94.1648C245.54 95.6307 245.915 97.3466 245.903 99.3125V116H237.568V100.949C237.58 99.4943 237.21 98.358 236.46 97.5398C235.722 96.7216 234.693 96.3125 233.375 96.3125C232.5 96.3125 231.727 96.5057 231.057 96.892C230.398 97.267 229.886 97.8068 229.523 98.5114C229.17 99.2159 228.989 100.068 228.977 101.068ZM263.303 116.494C260.564 116.494 258.2 115.955 256.212 114.875C254.234 113.784 252.712 112.233 251.643 110.222C250.587 108.199 250.058 105.795 250.058 103.011C250.058 100.307 250.592 97.9432 251.661 95.9205C252.729 93.8864 254.234 92.3068 256.178 91.1818C258.121 90.0455 260.411 89.4773 263.047 89.4773C264.911 89.4773 266.615 89.767 268.161 90.3466C269.706 90.9261 271.041 91.7841 272.166 92.9205C273.291 94.0568 274.166 95.4602 274.791 97.1307C275.416 98.7898 275.729 100.693 275.729 102.841V104.92H252.973V100.08H267.973C267.962 99.1932 267.751 98.4034 267.342 97.7102C266.933 97.017 266.371 96.4773 265.655 96.0909C264.95 95.6932 264.138 95.4943 263.217 95.4943C262.286 95.4943 261.45 95.7045 260.712 96.125C259.973 96.5341 259.388 97.0966 258.956 97.8125C258.524 98.517 258.297 99.3182 258.274 100.216V105.142C258.274 106.21 258.484 107.148 258.905 107.955C259.325 108.75 259.922 109.369 260.695 109.812C261.467 110.256 262.388 110.477 263.456 110.477C264.195 110.477 264.865 110.375 265.467 110.17C266.07 109.966 266.587 109.665 267.018 109.267C267.45 108.869 267.774 108.381 267.99 107.801L275.643 108.023C275.325 109.739 274.626 111.233 273.547 112.506C272.479 113.767 271.075 114.75 269.337 115.455C267.598 116.148 265.587 116.494 263.303 116.494ZM286.702 89.8182L291.014 98.4432L295.48 89.8182H303.884L296.571 102.909L304.156 116H295.821L291.014 107.307L286.327 116H277.872L285.474 102.909L278.247 89.8182H286.702ZM322.467 89.8182V95.9545H305.95V89.8182H322.467ZM309.411 83.5455H317.746V107.767C317.746 108.278 317.825 108.693 317.984 109.011C318.155 109.318 318.399 109.54 318.717 109.676C319.036 109.801 319.416 109.864 319.859 109.864C320.178 109.864 320.513 109.835 320.865 109.778C321.229 109.71 321.501 109.653 321.683 109.608L322.945 115.625C322.547 115.739 321.984 115.881 321.257 116.051C320.541 116.222 319.683 116.33 318.683 116.375C316.729 116.466 315.053 116.239 313.655 115.693C312.268 115.136 311.206 114.273 310.467 113.102C309.74 111.932 309.388 110.46 309.411 108.688V83.5455ZM326.72 89.8182H335.055V117.091C335.055 119.25 334.612 120.966 333.726 122.239C332.851 123.511 331.612 124.426 330.01 124.983C328.408 125.54 326.516 125.818 324.334 125.818C324.038 125.818 323.76 125.813 323.499 125.801C323.237 125.79 322.953 125.778 322.646 125.767V119.443C322.851 119.466 323.033 119.483 323.192 119.494C323.351 119.506 323.51 119.511 323.669 119.511C324.817 119.511 325.612 119.295 326.055 118.864C326.499 118.443 326.72 117.795 326.72 116.92V89.8182ZM330.879 86.767C329.709 86.767 328.703 86.3807 327.862 85.608C327.021 84.8239 326.601 83.8807 326.601 82.7784C326.601 81.6875 327.021 80.7557 327.862 79.983C328.703 79.1989 329.709 78.8068 330.879 78.8068C332.061 78.8068 333.067 79.1989 333.896 79.983C334.737 80.7557 335.158 81.6875 335.158 82.7784C335.158 83.8807 334.737 84.8239 333.896 85.608C333.067 86.3807 332.061 86.767 330.879 86.767ZM363.219 97.8125L355.565 98.017C355.486 97.4716 355.27 96.9886 354.918 96.5682C354.565 96.1364 354.105 95.8011 353.537 95.5625C352.98 95.3125 352.332 95.1875 351.594 95.1875C350.628 95.1875 349.804 95.3807 349.122 95.767C348.452 96.1534 348.122 96.6761 348.134 97.3352C348.122 97.8466 348.327 98.2898 348.747 98.6648C349.179 99.0398 349.946 99.3409 351.048 99.5682L356.094 100.523C358.707 101.023 360.651 101.852 361.923 103.011C363.207 104.17 363.855 105.705 363.866 107.614C363.855 109.409 363.321 110.972 362.264 112.301C361.219 113.631 359.787 114.665 357.969 115.403C356.151 116.131 354.071 116.494 351.73 116.494C347.991 116.494 345.043 115.727 342.884 114.193C340.736 112.648 339.509 110.58 339.202 107.989L347.435 107.784C347.616 108.739 348.088 109.466 348.849 109.966C349.611 110.466 350.582 110.716 351.764 110.716C352.832 110.716 353.702 110.517 354.372 110.119C355.043 109.722 355.384 109.193 355.395 108.534C355.384 107.943 355.122 107.472 354.611 107.119C354.099 106.756 353.298 106.472 352.207 106.267L347.639 105.398C345.014 104.92 343.06 104.04 341.776 102.756C340.491 101.46 339.855 99.8125 339.866 97.8125C339.855 96.0625 340.321 94.5682 341.264 93.3295C342.207 92.0795 343.548 91.125 345.287 90.4659C347.026 89.8068 349.077 89.4773 351.44 89.4773C354.986 89.4773 357.781 90.2216 359.827 91.7102C361.872 93.1875 363.003 95.2216 363.219 97.8125ZM384.726 98.6648V105.091H368.567V98.6648H384.726ZM397.991 116.443C396.321 116.443 394.838 116.165 393.543 115.608C392.259 115.04 391.241 114.187 390.491 113.051C389.753 111.903 389.384 110.466 389.384 108.739C389.384 107.284 389.639 106.057 390.151 105.057C390.662 104.057 391.366 103.244 392.264 102.619C393.162 101.994 394.196 101.523 395.366 101.205C396.537 100.875 397.787 100.653 399.116 100.54C400.605 100.403 401.804 100.261 402.713 100.114C403.622 99.9545 404.281 99.733 404.69 99.4489C405.111 99.1534 405.321 98.7386 405.321 98.2045V98.1193C405.321 97.2443 405.02 96.5682 404.418 96.0909C403.815 95.6136 403.003 95.375 401.98 95.375C400.878 95.375 399.991 95.6136 399.321 96.0909C398.651 96.5682 398.224 97.2273 398.043 98.0682L390.355 97.7955C390.582 96.2045 391.168 94.7841 392.111 93.5341C393.065 92.2727 394.372 91.2841 396.031 90.5682C397.702 89.8409 399.707 89.4773 402.048 89.4773C403.719 89.4773 405.259 89.6761 406.668 90.0739C408.077 90.4602 409.304 91.0284 410.349 91.7784C411.395 92.517 412.202 93.4261 412.77 94.5057C413.349 95.5852 413.639 96.8182 413.639 98.2045V116H405.798V112.352H405.594C405.128 113.239 404.531 113.989 403.804 114.602C403.088 115.216 402.241 115.676 401.264 115.983C400.298 116.29 399.207 116.443 397.991 116.443ZM400.565 110.989C401.463 110.989 402.27 110.807 402.986 110.443C403.713 110.08 404.293 109.58 404.724 108.943C405.156 108.295 405.372 107.545 405.372 106.693V104.205C405.134 104.33 404.844 104.443 404.503 104.545C404.173 104.648 403.81 104.744 403.412 104.835C403.014 104.926 402.605 105.006 402.185 105.074C401.764 105.142 401.361 105.205 400.974 105.261C400.19 105.386 399.52 105.58 398.963 105.841C398.418 106.102 397.997 106.443 397.702 106.864C397.418 107.273 397.276 107.761 397.276 108.33C397.276 109.193 397.582 109.852 398.196 110.307C398.821 110.761 399.611 110.989 400.565 110.989ZM435.628 104.699V89.8182H443.946V116H436.003V111.125H435.73C435.151 112.727 434.162 114 432.764 114.943C431.378 115.875 429.702 116.341 427.736 116.341C425.952 116.341 424.384 115.932 423.031 115.114C421.679 114.295 420.628 113.153 419.878 111.688C419.128 110.21 418.747 108.483 418.736 106.506V89.8182H427.071V104.869C427.082 106.29 427.457 107.409 428.196 108.227C428.935 109.045 429.94 109.455 431.213 109.455C432.043 109.455 432.787 109.273 433.446 108.909C434.116 108.534 434.645 107.994 435.031 107.29C435.429 106.574 435.628 105.71 435.628 104.699ZM464.03 89.8182V95.9545H447.513V89.8182H464.03ZM450.973 83.5455H459.308V107.767C459.308 108.278 459.388 108.693 459.547 109.011C459.717 109.318 459.962 109.54 460.28 109.676C460.598 109.801 460.979 109.864 461.422 109.864C461.74 109.864 462.075 109.835 462.428 109.778C462.791 109.71 463.064 109.653 463.246 109.608L464.507 115.625C464.109 115.739 463.547 115.881 462.82 116.051C462.104 116.222 461.246 116.33 460.246 116.375C458.291 116.466 456.615 116.239 455.217 115.693C453.831 115.136 452.768 114.273 452.03 113.102C451.303 111.932 450.95 110.46 450.973 108.688V83.5455ZM477.18 101.068V116H468.845V81.0909H476.908V94.625H477.197C477.788 93.0114 478.754 91.75 480.095 90.8409C481.447 89.9318 483.101 89.4773 485.055 89.4773C486.896 89.4773 488.499 89.8864 489.862 90.7045C491.226 91.5114 492.283 92.6534 493.033 94.1307C493.794 95.608 494.169 97.3352 494.158 99.3125V116H485.822V100.949C485.834 99.4943 485.47 98.358 484.732 97.5398C483.993 96.7216 482.953 96.3125 481.612 96.3125C480.737 96.3125 479.964 96.5057 479.294 96.892C478.635 97.267 478.118 97.8068 477.743 98.5114C477.379 99.2159 477.192 100.068 477.18 101.068ZM516.116 98.6648V105.091H499.957V98.6648H516.116ZM536.78 89.8182V95.9545H520.263V89.8182H536.78ZM523.723 83.5455H532.058V107.767C532.058 108.278 532.138 108.693 532.297 109.011C532.467 109.318 532.712 109.54 533.03 109.676C533.348 109.801 533.729 109.864 534.172 109.864C534.49 109.864 534.825 109.835 535.178 109.778C535.541 109.71 535.814 109.653 535.996 109.608L537.257 115.625C536.859 115.739 536.297 115.881 535.57 116.051C534.854 116.222 533.996 116.33 532.996 116.375C531.041 116.466 529.365 116.239 527.967 115.693C526.581 115.136 525.518 114.273 524.78 113.102C524.053 111.932 523.7 110.46 523.723 108.688V83.5455ZM552.99 116.494C550.251 116.494 547.888 115.955 545.899 114.875C543.922 113.784 542.399 112.233 541.331 110.222C540.274 108.199 539.746 105.795 539.746 103.011C539.746 100.307 540.28 97.9432 541.348 95.9205C542.416 93.8864 543.922 92.3068 545.865 91.1818C547.808 90.0455 550.098 89.4773 552.734 89.4773C554.598 89.4773 556.303 89.767 557.848 90.3466C559.393 90.9261 560.729 91.7841 561.854 92.9205C562.979 94.0568 563.854 95.4602 564.479 97.1307C565.104 98.7898 565.416 100.693 565.416 102.841V104.92H542.661V100.08H557.661C557.649 99.1932 557.439 98.4034 557.03 97.7102C556.621 97.017 556.058 96.4773 555.342 96.0909C554.638 95.6932 553.825 95.4943 552.905 95.4943C551.973 95.4943 551.138 95.7045 550.399 96.125C549.661 96.5341 549.075 97.0966 548.643 97.8125C548.212 98.517 547.984 99.3182 547.962 100.216V105.142C547.962 106.21 548.172 107.148 548.592 107.955C549.013 108.75 549.609 109.369 550.382 109.812C551.155 110.256 552.075 110.477 553.143 110.477C553.882 110.477 554.553 110.375 555.155 110.17C555.757 109.966 556.274 109.665 556.706 109.267C557.138 108.869 557.462 108.381 557.678 107.801L565.331 108.023C565.013 109.739 564.314 111.233 563.234 112.506C562.166 113.767 560.763 114.75 559.024 115.455C557.286 116.148 555.274 116.494 552.99 116.494ZM569.673 116V89.8182H577.599V94.625H577.889C578.435 93.0341 579.355 91.7784 580.651 90.858C581.946 89.9375 583.491 89.4773 585.287 89.4773C587.105 89.4773 588.662 89.9432 589.957 90.875C591.253 91.8068 592.077 93.0568 592.429 94.625H592.702C593.19 93.0682 594.145 91.8239 595.565 90.892C596.986 89.9489 598.662 89.4773 600.594 89.4773C603.071 89.4773 605.082 90.2727 606.628 91.8636C608.173 93.4432 608.946 95.6136 608.946 98.375V116H600.611V100.284C600.611 98.9773 600.276 97.983 599.605 97.3011C598.935 96.608 598.065 96.2614 596.997 96.2614C595.849 96.2614 594.946 96.6364 594.287 97.3864C593.639 98.125 593.315 99.1193 593.315 100.369V116H585.304V100.199C585.304 98.983 584.974 98.0227 584.315 97.3182C583.656 96.6136 582.787 96.2614 581.707 96.2614C580.98 96.2614 580.338 96.4375 579.781 96.7898C579.224 97.1307 578.787 97.6193 578.469 98.2557C578.162 98.892 578.009 99.642 578.009 100.506V116H569.673ZM614.111 125.818V89.8182H622.361V94.3011H622.616C622.957 93.5057 623.44 92.7386 624.065 92C624.702 91.2614 625.509 90.6591 626.486 90.1932C627.474 89.7159 628.656 89.4773 630.031 89.4773C631.849 89.4773 633.548 89.9545 635.128 90.9091C636.719 91.8636 638.003 93.3352 638.98 95.3239C639.957 97.3125 640.446 99.8466 640.446 102.926C640.446 105.892 639.974 108.375 639.031 110.375C638.099 112.375 636.838 113.875 635.247 114.875C633.668 115.875 631.912 116.375 629.98 116.375C628.662 116.375 627.52 116.159 626.554 115.727C625.588 115.295 624.776 114.727 624.116 114.023C623.469 113.318 622.969 112.562 622.616 111.756H622.446V125.818H614.111ZM622.276 102.909C622.276 104.318 622.463 105.545 622.838 106.591C623.224 107.636 623.776 108.449 624.491 109.028C625.219 109.597 626.088 109.881 627.099 109.881C628.122 109.881 628.991 109.597 629.707 109.028C630.423 108.449 630.963 107.636 631.327 106.591C631.702 105.545 631.889 104.318 631.889 102.909C631.889 101.5 631.702 100.278 631.327 99.2443C630.963 98.2102 630.423 97.4091 629.707 96.8409C629.003 96.2727 628.134 95.9886 627.099 95.9886C626.077 95.9886 625.207 96.267 624.491 96.8239C623.776 97.3807 623.224 98.1761 622.838 99.2102C622.463 100.244 622.276 101.477 622.276 102.909ZM653.149 81.0909V116H644.814V81.0909H653.149ZM665.835 116.443C664.165 116.443 662.682 116.165 661.386 115.608C660.102 115.04 659.085 114.187 658.335 113.051C657.597 111.903 657.227 110.466 657.227 108.739C657.227 107.284 657.483 106.057 657.994 105.057C658.506 104.057 659.21 103.244 660.108 102.619C661.006 101.994 662.04 101.523 663.21 101.205C664.381 100.875 665.631 100.653 666.96 100.54C668.449 100.403 669.648 100.261 670.557 100.114C671.466 99.9545 672.125 99.733 672.534 99.4489C672.955 99.1534 673.165 98.7386 673.165 98.2045V98.1193C673.165 97.2443 672.864 96.5682 672.261 96.0909C671.659 95.6136 670.847 95.375 669.824 95.375C668.722 95.375 667.835 95.6136 667.165 96.0909C666.494 96.5682 666.068 97.2273 665.886 98.0682L658.199 97.7955C658.426 96.2045 659.011 94.7841 659.955 93.5341C660.909 92.2727 662.216 91.2841 663.875 90.5682C665.545 89.8409 667.551 89.4773 669.892 89.4773C671.563 89.4773 673.102 89.6761 674.511 90.0739C675.92 90.4602 677.148 91.0284 678.193 91.7784C679.239 92.517 680.045 93.4261 680.614 94.5057C681.193 95.5852 681.483 96.8182 681.483 98.2045V116H673.642V112.352H673.438C672.972 113.239 672.375 113.989 671.648 114.602C670.932 115.216 670.085 115.676 669.108 115.983C668.142 116.29 667.051 116.443 665.835 116.443ZM668.409 110.989C669.307 110.989 670.114 110.807 670.83 110.443C671.557 110.08 672.136 109.58 672.568 108.943C673 108.295 673.216 107.545 673.216 106.693V104.205C672.977 104.33 672.688 104.443 672.347 104.545C672.017 104.648 671.653 104.744 671.256 104.835C670.858 104.926 670.449 105.006 670.028 105.074C669.608 105.142 669.205 105.205 668.818 105.261C668.034 105.386 667.364 105.58 666.807 105.841C666.261 106.102 665.841 106.443 665.545 106.864C665.261 107.273 665.119 107.761 665.119 108.33C665.119 109.193 665.426 109.852 666.04 110.307C666.665 110.761 667.455 110.989 668.409 110.989ZM701.358 89.8182V95.9545H684.841V89.8182H701.358ZM688.301 83.5455H696.636V107.767C696.636 108.278 696.716 108.693 696.875 109.011C697.045 109.318 697.29 109.54 697.608 109.676C697.926 109.801 698.307 109.864 698.75 109.864C699.068 109.864 699.403 109.835 699.756 109.778C700.119 109.71 700.392 109.653 700.574 109.608L701.835 115.625C701.438 115.739 700.875 115.881 700.148 116.051C699.432 116.222 698.574 116.33 697.574 116.375C695.619 116.466 693.943 116.239 692.545 115.693C691.159 115.136 690.097 114.273 689.358 113.102C688.631 111.932 688.278 110.46 688.301 108.688V83.5455ZM717.568 116.494C714.83 116.494 712.466 115.955 710.477 114.875C708.5 113.784 706.977 112.233 705.909 110.222C704.852 108.199 704.324 105.795 704.324 103.011C704.324 100.307 704.858 97.9432 705.926 95.9205C706.994 93.8864 708.5 92.3068 710.443 91.1818C712.386 90.0455 714.676 89.4773 717.312 89.4773C719.176 89.4773 720.881 89.767 722.426 90.3466C723.972 90.9261 725.307 91.7841 726.432 92.9205C727.557 94.0568 728.432 95.4602 729.057 97.1307C729.682 98.7898 729.994 100.693 729.994 102.841V104.92H707.239V100.08H722.239C722.227 99.1932 722.017 98.4034 721.608 97.7102C721.199 97.017 720.636 96.4773 719.92 96.0909C719.216 95.6932 718.403 95.4943 717.483 95.4943C716.551 95.4943 715.716 95.7045 714.977 96.125C714.239 96.5341 713.653 97.0966 713.222 97.8125C712.79 98.517 712.563 99.3182 712.54 100.216V105.142C712.54 106.21 712.75 107.148 713.17 107.955C713.591 108.75 714.188 109.369 714.96 109.812C715.733 110.256 716.653 110.477 717.722 110.477C718.46 110.477 719.131 110.375 719.733 110.17C720.335 109.966 720.852 109.665 721.284 109.267C721.716 108.869 722.04 108.381 722.256 107.801L729.909 108.023C729.591 109.739 728.892 111.233 727.812 112.506C726.744 113.767 725.341 114.75 723.602 115.455C721.864 116.148 719.852 116.494 717.568 116.494Z" fill="#C9CBD2"/>
</svg>
